<svg xmlns="http://www.w3.org/2000/svg" viewBox="0 0 695.75 493.32"><defs><style>.cls-1{opacity:0.6;}.cls-2{fill:#d53c97;}.cls-3{fill:#ff3b65;}.cls-4{fill:#fff;}</style></defs><g id="Layer_2" data-name="Layer 2"><g id="Layer_1-2" data-name="Layer 1"><g class="cls-1"><path class="cls-2" d="M493.31,246.66c0-74.82-33.53-141.92-86.31-187.2-2.81-.89-5.65-1.73-8.51-2.49a195.08,195.08,0,0,0-50.67,21.55c57,34.4,95.17,96.87,95.17,168.14a196.32,196.32,0,0,1-95.17,168.13,195.1,195.1,0,0,0,50.67,21.56c2.86-.76,5.7-1.61,8.51-2.5C459.78,388.58,493.31,321.48,493.31,246.66Z"/><path class="cls-2" d="M402.88,55.94l-.07-.06c-1.45.35-2.89.7-4.32,1.09C399.94,56.58,401.42,56.3,402.88,55.94Z"/><path class="cls-2" d="M50.32,246.66C50.32,159,108.1,84.54,187.59,59.41A246,246,0,0,1,297.27,5.24,246.93,246.93,0,0,0,246.66,0C110.65,0,0,110.65,0,246.66S110.65,493.32,246.66,493.32a246.23,246.23,0,0,0,50.61-5.25A245.92,245.92,0,0,1,187.59,433.9C108.1,408.77,50.32,334.35,50.32,246.66Z"/><path class="cls-2" d="M398.49,436.35c1.43.38,2.87.74,4.32,1.09,0,0,.05,0,.07-.06C401.42,437,399.94,436.74,398.49,436.35Z"/></g><path class="cls-3" d="M594.53,246.66c0-74.85-33.55-142-86.36-187.25A196.21,196.21,0,0,0,398.49,57c83.8,22.38,145.72,98.92,145.72,189.69S482.29,414,398.49,436.35a196.1,196.1,0,0,0,109.68-2.45A246.11,246.11,0,0,0,594.53,246.66Z"/><path class="cls-3" d="M288.81,433.9c-79.49-25.13-137.27-99.55-137.27-187.24S209.32,84.54,288.81,59.41A246,246,0,0,1,398.49,5.24,246.85,246.85,0,0,0,347.88,0c-136,0-246.66,110.65-246.66,246.66S211.87,493.32,347.88,493.32a246.16,246.16,0,0,0,50.61-5.25A245.92,245.92,0,0,1,288.81,433.9Z"/><path class="cls-4" d="M449.1,0c-136,0-246.66,110.65-246.66,246.66S313.09,493.32,449.1,493.32,695.75,382.67,695.75,246.66,585.11,0,449.1,0ZM645.44,246.66C645.44,354.92,557.36,443,449.1,443S252.76,354.92,252.76,246.66,340.84,50.32,449.1,50.32,645.44,138.4,645.44,246.66Z"/></g></g></svg>